# xmcd
#
# Track frame offsets:
#  150
#  10895
#  21192
#  31958
#  42346
#  50550
#  62034
#  72368
#  82839
#  92631
#  101707
#  111380
#  120969
#  132608
#  142557
#  156446
#  167452
#  178026
#  189741
#  200897
#
# Disc length: 2851 seconds
#
# Revision: 0
# Processed by: cddbd v1.5.2PL0 Copyright (c) Steve Scherf et al.
# Submitted via: AltoMP3_Maker 3.0
#
DISCID=150b2114
DTITLE=Wade Flemons - Here I Stand - 20 Greatest Hits
DYEAR=1900
DGENRE=
TTITLE0=Here I Stand
TTITLE1=Don't Be Careless
TTITLE2=What's Happening
TTITLE3=Purposely
TTITLE4=The Angels Will Tell You
TTITLE5=My Baby Likes To Rock
TTITLE6=Woops Now
TTITLE7=Easy Lovin'
TTITLE8=Too Long Will Be Too Late
TTITLE9=It's So Much Fun
TTITLE10=Slow Motion
TTITLE11=Goodnight, It's Time To Go
TTITLE12=Ain't That Lovin' You Baby
TTITLE13=At The Party
TTITLE14=Keep On Loving Me
TTITLE15=Please Send Me Someone To Love
TTITLE16=Ain't These Tears
TTITLE17=When It Rains It Pours
TTITLE18=That Other Place
TTITLE19=I Knew You When
EXTD=
EXTT0=
EXTT1=
EXTT2=
EXTT3=
EXTT4=
EXTT5=
EXTT6=
EXTT7=
EXTT8=
EXTT9=
EXTT10=
EXTT11=
EXTT12=
EXTT13=
EXTT14=
EXTT15=
EXTT16=
EXTT17=
EXTT18=
EXTT19=
PLAYORDER=
